<svg width="541" height="498" viewBox="0 0 541 498" fill="none" xmlns="http://www.w3.org/2000/svg">
<rect x="479" y="16" width="6" height="24" rx="3" fill="black"/>
<rect x="470" y="31" width="6" height="24" rx="3" transform="rotate(-90 470 31)" fill="black"/>
<rect x="505" y="32" width="6" height="24" rx="3" fill="black"/>
<rect x="496" y="47" width="6" height="24" rx="3" transform="rotate(-90 496 47)" fill="black"/>
<rect x="505" width="6" height="24" rx="3" fill="black"/>
<rect x="496" y="15" width="6" height="24" rx="3" transform="rotate(-90 496 15)" fill="black"/>
<ellipse cx="285.5" cy="253.5" rx="255.5" ry="244.5" fill="#D9D9D9"/>
<rect x="12.2021" y="388" width="5" height="30" transform="rotate(24 12.2021 388)" fill="black"/>
<rect x="33.9719" y="388" width="5" height="30" transform="rotate(24 33.9719 388)" fill="black"/>
<rect x="55.7418" y="388" width="5" height="30" transform="rotate(24 55.7418 388)" fill="black"/>
<rect x="77.5115" y="388" width="5" height="30" transform="rotate(24 77.5115 388)" fill="black"/>
<rect x="99.2813" y="388" width="5" height="30" transform="rotate(24 99.2813 388)" fill="black"/>
</svg>
